<svg width="28" height="23" viewBox="0 0 28 23" fill="none" xmlns="http://www.w3.org/2000/svg">
<path d="M24.9565 0H3.04348C1.36261 0 1.04778e-08 1.32278 1.04778e-08 2.95452V5.31814C-4.12187e-05 5.53438 0.121595 5.73337 0.31713 5.83695L13.7084 12.9278C13.8902 13.0241 14.1098 13.0241 14.2916 12.9278L27.6829 5.83695C27.8784 5.73337 28 5.53438 28 5.31814V2.95452C28 1.32278 26.6374 0 24.9565 0Z" fill="#2D2D2D"/>
<path d="M14.8747 14.1983C14.3301 14.4969 13.6723 14.4969 13.1277 14.1983L0.014 7L0 7.00919V19.9366C0 21.6285 1.36261 23 3.04348 23H24.9565C26.6374 23 28 21.6285 28 19.9366V7.00919L27.986 7.00061L14.8747 14.1983Z" fill="#2D2D2D"/>
</svg>
