<svg width="32" height="33" viewBox="0 0 32 33" fill="none" xmlns="http://www.w3.org/2000/svg">
<g clip-path="url(#clip0_1_119)">
<circle cx="16" cy="17" r="16" fill="#34B3F2"/>
<path d="M15.2231 22H12.4028L12.4214 20.5435H15.2231C16.188 20.5435 16.992 20.3424 17.6353 19.9404C18.2785 19.5322 18.7609 18.9632 19.0825 18.2334C19.4103 17.4974 19.5742 16.6377 19.5742 15.6543V14.8286C19.5742 14.0555 19.4814 13.369 19.2959 12.769C19.1104 12.1629 18.8382 11.6527 18.4795 11.2383C18.1208 10.8177 17.6816 10.4992 17.1621 10.2827C16.6488 10.0662 16.0581 9.95801 15.3901 9.95801H12.3472V8.49219H15.3901C16.2746 8.49219 17.0817 8.64062 17.8115 8.9375C18.5413 9.22819 19.1691 9.65186 19.6948 10.2085C20.2267 10.759 20.6349 11.4269 20.9194 12.2124C21.2039 12.9917 21.3462 13.87 21.3462 14.8472V15.6543C21.3462 16.6315 21.2039 17.5129 20.9194 18.2983C20.6349 19.0776 20.2236 19.7425 19.6855 20.293C19.1536 20.8434 18.5104 21.2671 17.7559 21.564C17.0075 21.8547 16.1632 22 15.2231 22ZM13.3584 8.49219V22H11.5679V8.49219H13.3584Z" fill="white"/>
</g>
<defs>
<clipPath id="clip0_1_119">
<rect width="32" height="33" fill="white"/>
</clipPath>
</defs>
</svg>
