<svg width="32" height="36" viewBox="0 0 32 36" fill="none" xmlns="http://www.w3.org/2000/svg">
<g clip-path="url(#clip0_1_142)">
<circle cx="16" cy="20" r="16" fill="#473BF0"/>
<path d="M18.375 22.3438C18.3333 22.4375 18.2969 22.5365 18.2656 22.6406C18.2344 22.7448 18.2188 22.8333 18.2188 22.9062C18.2188 23.0312 18.2448 23.1146 18.2969 23.1562C18.3594 23.1979 18.4375 23.2188 18.5312 23.2188C18.6771 23.2188 18.8542 23.1458 19.0625 23C19.2708 22.8542 19.4896 22.6406 19.7188 22.3594L22.5781 18.8281L22.9688 19.1406L19.5156 23.4062C19.2656 23.7188 19.0312 23.9792 18.8125 24.1875C18.5938 24.3958 18.3854 24.5625 18.1875 24.6875C18 24.8021 17.8073 24.8854 17.6094 24.9375C17.4219 24.9896 17.2292 25.0156 17.0312 25.0156C16.7188 25.0156 16.4583 24.9271 16.25 24.75C16.0417 24.5625 15.9375 24.3281 15.9375 24.0469C15.9375 23.7344 15.9948 23.4115 16.1094 23.0781C16.2344 22.7448 16.4115 22.3281 16.6406 21.8281C16.724 21.651 16.8229 21.4219 16.9375 21.1406C17.0625 20.849 17.1927 20.5469 17.3281 20.2344C17.4635 19.9115 17.599 19.5885 17.7344 19.2656C17.8698 18.9427 17.9896 18.651 18.0938 18.3906C18.1979 18.1198 18.2812 17.8958 18.3438 17.7188C18.4167 17.5417 18.4531 17.4375 18.4531 17.4062C18.4531 17.3021 18.4167 17.25 18.3438 17.25C18.25 17.25 18.151 17.3281 18.0469 17.4844C17.9844 17.5677 17.8594 17.7448 17.6719 18.0156C17.4844 18.2865 17.2552 18.6094 16.9844 18.9844C16.7135 19.3594 16.4219 19.7656 16.1094 20.2031C15.7969 20.6406 15.4844 21.0677 15.1719 21.4844C14.8594 21.901 14.5625 22.2812 14.2812 22.625C14 22.9688 13.7604 23.2396 13.5625 23.4375C13.0625 23.9375 12.6198 24.3333 12.2344 24.625C11.849 24.9062 11.4688 25.0469 11.0938 25.0469C10.9688 25.0469 10.8333 25.0208 10.6875 24.9688C10.5312 24.9167 10.3906 24.8281 10.2656 24.7031C10.1302 24.5677 10.0208 24.3854 9.9375 24.1562C9.85417 23.9167 9.8125 23.6146 9.8125 23.25C9.8125 22.7083 9.9375 22.1094 10.1875 21.4531C10.4271 20.7969 10.7604 20.1302 11.1875 19.4531C11.6146 18.7656 12.1198 18.0938 12.7031 17.4375C13.2865 16.7812 13.9167 16.1927 14.5938 15.6719C15.2812 15.1406 16 14.6979 16.75 14.3438C17.5 13.9896 18.2604 13.776 19.0312 13.7031V13.9844C18.3958 14.1719 17.7865 14.4635 17.2031 14.8594C16.6198 15.2448 16.0729 15.6927 15.5625 16.2031C15.0521 16.7135 14.5885 17.2604 14.1719 17.8438C13.7552 18.4167 13.3958 18.9844 13.0938 19.5469C12.7917 20.1094 12.5625 20.6458 12.4062 21.1562C12.2396 21.6562 12.1562 22.0781 12.1562 22.4219C12.1562 22.6094 12.1875 22.7656 12.25 22.8906C12.3021 23.0156 12.3802 23.0781 12.4844 23.0781C12.599 23.0781 12.7708 22.9844 13 22.7969C13.2188 22.6094 13.474 22.3594 13.7656 22.0469C14.0573 21.724 14.375 21.3594 14.7188 20.9531C15.0625 20.5365 15.4115 20.1042 15.7656 19.6562C16.1198 19.2083 16.4688 18.7552 16.8125 18.2969C17.1667 17.8385 17.4948 17.4062 17.7969 17C18.2552 16.375 18.6354 15.8594 18.9375 15.4531C19.2396 15.0469 19.5 14.724 19.7188 14.4844C19.9375 14.2344 20.1354 14.0625 20.3125 13.9688C20.4896 13.875 20.6823 13.8281 20.8906 13.8281C21.1094 13.8281 21.2604 13.8854 21.3438 14C21.4271 14.1146 21.4688 14.2552 21.4688 14.4219C21.4688 14.5573 21.4479 14.6979 21.4062 14.8438C21.375 14.9896 21.3333 15.1198 21.2812 15.2344C21.2396 15.3281 21.1458 15.5521 21 15.9062C20.8646 16.25 20.6979 16.6667 20.5 17.1562C20.3021 17.6354 20.0885 18.151 19.8594 18.7031C19.6406 19.2552 19.4271 19.7812 19.2188 20.2812C19.0208 20.7708 18.8438 21.2083 18.6875 21.5938C18.5312 21.9688 18.4271 22.2188 18.375 22.3438Z" fill="white"/>
</g>
<defs>
<clipPath id="clip0_1_142">
<rect width="32" height="36" fill="white"/>
</clipPath>
</defs>
</svg>
